<svg width="33" height="33" viewBox="0 0 33 33" fill="none" xmlns="http://www.w3.org/2000/svg">
<path d="M11.8958 19.6064C11.8958 21.3264 13.2158 22.713 14.8558 22.713H18.2024C19.6291 22.713 20.7891 21.4997 20.7891 20.0064C20.7891 18.3797 20.0824 17.8064 19.0291 17.433L13.6558 15.5664C12.6024 15.193 11.8958 14.6197 11.8958 12.993C11.8958 11.4997 13.0558 10.2864 14.4824 10.2864H17.8291C19.4691 10.2864 20.7891 11.673 20.7891 13.393" stroke="#407BFF" stroke-width="2" stroke-linecap="round" stroke-linejoin="round"/>
<path d="M16.3333 8.5V24.5" stroke="#407BFF" stroke-width="2" stroke-linecap="round" stroke-linejoin="round"/>
<path d="M20.3333 29.8334H12.3333C5.66667 29.8334 3 27.1667 3 20.5001V12.5001C3 5.83341 5.66667 3.16675 12.3333 3.16675H20.3333C27 3.16675 29.6667 5.83341 29.6667 12.5001V20.5001C29.6667 27.1667 27 29.8334 20.3333 29.8334Z" stroke="#407BFF" stroke-width="2" stroke-linecap="round" stroke-linejoin="round"/>
</svg>
