<svg width="33" height="33" viewBox="0 0 33 33" fill="none" xmlns="http://www.w3.org/2000/svg">
<path fill-rule="evenodd" clip-rule="evenodd" d="M11.0462 3.83325H22.2853C26.5389 3.83325 29.9997 7.37296 29.9997 11.7251V21.2747C29.9997 25.6269 26.5389 29.1666 22.2853 29.1666C21.7946 29.1666 21.3964 28.7591 21.3964 28.2571C21.3964 27.7551 21.7946 27.3476 22.2853 27.3476C25.5588 27.3476 28.2219 24.624 28.2219 21.2747V13.6532H23.8438C22.4062 13.6545 21.234 14.8525 21.2329 16.3247C21.234 17.7968 22.4062 18.9949 23.8438 18.9961H25.6631C26.1537 18.9961 26.552 19.4036 26.552 19.9056C26.552 20.4077 26.1537 20.8151 25.6631 20.8151H23.8438C21.4249 20.8139 19.4563 18.7997 19.4551 16.3247C19.4563 13.8497 21.4249 11.8355 23.8438 11.8343H28.2219V11.7251C28.2219 8.37581 25.5588 5.65222 22.2853 5.65222H11.0462C8.40797 5.65222 6.19405 7.43238 5.42249 9.871H17.1392C17.6299 9.871 18.0281 10.2785 18.0281 10.7805C18.0281 11.2837 17.6299 11.69 17.1392 11.69H5.11434C5.11434 11.696 5.11345 11.7018 5.11256 11.7076C5.11167 11.7133 5.11079 11.7191 5.11079 11.7251V21.2747C5.11079 24.624 7.77271 27.3476 11.0462 27.3476H16.7007C17.1914 27.3476 17.5896 27.7551 17.5896 28.2571C17.5896 28.7591 17.1914 29.1666 16.7007 29.1666H11.0462C6.79256 29.1666 3.33301 25.6269 3.33301 21.2747V11.7251C3.33301 7.37296 6.79256 3.83325 11.0462 3.83325ZM23.1476 16.2427C23.1476 15.7407 23.5459 15.3332 24.0365 15.3332H24.4407C24.9314 15.3332 25.3296 15.7407 25.3296 16.2427C25.3296 16.7448 24.9314 17.1522 24.4407 17.1522H24.0365C23.5459 17.1522 23.1476 16.7448 23.1476 16.2427Z" fill="#407BFF"/>
</svg>
